<svg width="128" height="45" viewBox="0 0 128 45" fill="none" xmlns="http://www.w3.org/2000/svg">
<g clip-path="url(#clip0_1797_6984)">
<path d="M0.534912 44.2446V25.6011H6.10814V32.3409H15.3174V25.6011H20.8906V44.2446H15.3174V36.9876H6.10814V44.2446H0.534912Z" fill="white"/>
<path d="M36.325 25.2995C39.0304 25.2995 41.2532 25.8014 42.9935 26.8053C44.3883 27.6014 45.5263 28.8323 46.2581 30.3362C46.846 31.6313 47.1417 33.0569 47.1212 34.4976V35.2483C47.1195 36.3478 46.9498 37.4395 46.6189 38.4799C46.2816 39.5561 45.7291 40.5399 45.0004 41.3622C43.1349 43.4788 40.2431 44.5372 36.325 44.5372H35.2699C32.5645 44.5372 30.3494 44.0193 28.6246 42.9837C27.2084 42.1829 26.0653 40.9195 25.36 39.3757C24.7625 38.0931 24.4587 36.6757 24.4737 35.2415V34.4908C24.4497 33.0469 24.754 31.6184 25.36 30.3294C26.074 28.8115 27.2168 27.5755 28.6246 26.7985C30.334 25.7931 32.549 25.2912 35.2699 25.2927L36.325 25.2995ZM41.3158 34.6972C41.3158 33.394 40.9817 32.35 40.3134 31.5654C39.3962 30.498 37.8958 29.9636 35.8122 29.9621C33.761 29.9621 32.2613 30.4965 31.3131 31.5654C30.6308 32.35 30.2896 33.394 30.2896 34.6972V35.0215C30.2896 36.3096 30.647 37.3626 31.3617 38.1805C32.3099 39.2827 33.7941 39.8338 35.8143 39.8338C37.8979 39.8338 39.3983 39.2827 40.3156 38.1805C40.9824 37.3777 41.3165 36.3247 41.3179 35.0215L41.3158 34.6972Z" fill="white"/>
<path d="M55.7736 44.2446V30.3113H48.9426V25.6011H68.1461V30.3113H61.3236V44.2446H55.7736Z" fill="white"/>
<path d="M71.4211 25.6011H88.0458V29.8849H76.9458V32.5927H87.6892V37.0262H76.9458V39.9131H88.1851V44.2446H71.4211V25.6011Z" fill="white"/>
<path d="M91.4667 25.6011H97.0399V39.3824H104.932V44.2446H91.4667V25.6011Z" fill="white"/>
<path d="M117.326 44.5689C114.622 44.5689 112.5 44.2015 110.961 43.4667C109.695 42.862 108.793 42.0305 108.256 40.9722C107.862 40.1435 107.67 39.2215 107.697 38.2916V38.0649H113.711C113.718 38.3504 113.779 38.6315 113.892 38.8902C114.004 39.149 114.166 39.3799 114.365 39.5684C115.003 40.1867 116.058 40.4959 117.531 40.4959H117.67C119.177 40.4959 120.241 40.2873 120.863 39.87C121.082 39.7387 121.257 39.5374 121.365 39.294C121.454 39.0555 121.498 38.8003 121.494 38.5434C121.498 38.3079 121.45 38.0748 121.355 37.863C121.238 37.6469 121.067 37.4695 120.863 37.3505C120.335 37.0164 119.411 36.841 118.09 36.8244L115.718 36.7382C112.856 36.6384 110.797 36.045 109.539 34.958C108.45 34.0403 107.906 32.7794 107.906 31.1753V30.9485C107.906 29.2114 108.497 27.8915 109.678 26.989C111.139 25.9034 113.571 25.3607 116.976 25.3607H117.866C121.487 25.3607 124.029 25.9783 125.491 27.2135C126.547 28.1206 127.076 29.3906 127.078 31.0234V31.2229H121.15C121.108 30.987 121.037 30.7582 120.939 30.5426C120.82 30.3121 120.652 30.1148 120.449 29.9666C119.858 29.5312 118.874 29.3134 117.495 29.3134H117.284C115.916 29.3134 114.953 29.4556 114.393 29.7398C114.182 29.8364 114 29.9933 113.867 30.1933C113.761 30.3868 113.709 30.6085 113.715 30.8329C113.709 31.0595 113.765 31.2831 113.878 31.4747C113.991 31.6663 114.155 31.8172 114.348 31.9078C114.862 32.2434 115.724 32.4188 116.936 32.4339L119.384 32.511C122.384 32.6108 124.53 33.1619 125.82 34.1642C126.354 34.5809 126.77 35.1495 127.021 35.8061C127.273 36.5213 127.396 37.2819 127.381 38.0467V38.3483C127.411 39.3488 127.202 40.3407 126.776 41.2307C126.231 42.2497 125.322 43.0343 124.047 43.5847C122.54 44.2378 120.512 44.5636 117.961 44.5621L117.326 44.5689Z" fill="white"/>
<path d="M19.7723 11.3571C19.135 10.6571 18.1938 10.1817 16.9487 9.93068C17.952 9.74316 18.8793 9.23499 19.6098 8.4725C19.9746 8.08975 20.2625 7.63063 20.4556 7.12354C20.6487 6.61645 20.7429 6.07216 20.7324 5.52437V5.29759C20.7324 3.84167 20.3273 2.72213 19.5169 1.93899C18.338 0.814165 16.3086 0.250997 13.4288 0.249485H0.55188V18.7138L3.5548 18.3238C4.41579 18.2081 5.27467 18.097 6.12511 18.0086V12.838H11.9811C13.1966 12.838 14.0492 13.0784 14.5472 13.5637C14.8126 13.8362 15.0025 14.1823 15.0959 14.5638C15.2127 15.0733 15.2673 15.5971 15.2584 16.1218V17.2171C17.1576 17.106 19.04 17.0311 20.8801 16.9903V14.5638C20.8717 13.2485 20.5024 12.1781 19.7723 11.3571ZM14.9186 6.4655C14.9186 7.03698 14.7751 7.45652 14.4776 7.72186C14.1048 8.07412 13.5068 8.24949 12.6838 8.24798H6.12511V4.71477H12.6838C13.49 4.71477 14.0893 4.88031 14.4776 5.21595C14.631 5.3668 14.7505 5.55323 14.8269 5.76109C14.9033 5.96895 14.9347 6.19278 14.9186 6.41561V6.4655Z" fill="white"/>
<path d="M26.4175 0.249485V16.9064C28.3224 16.9064 30.1808 16.9336 31.9928 16.9881V0.249485H26.4175Z" fill="white"/>
<path d="M57.5567 9.85582C56.8393 9.23445 55.9002 8.81944 54.7353 8.59947C55.1112 8.54353 55.4779 8.43053 55.8242 8.26383C56.2026 8.08861 56.5574 7.85981 56.8793 7.5835C57.2479 7.25446 57.5422 6.83978 57.74 6.37074C57.9377 5.90169 58.0338 5.39052 58.021 4.87576V4.64898C58.0417 4.06852 57.9343 3.49103 57.7077 2.96368C57.481 2.43633 57.1415 1.97408 56.7169 1.61467C55.6406 0.707556 53.9735 0.253998 51.6775 0.253998H38.0747V17.2171C41.2232 17.3713 44.1945 17.5686 46.9758 17.7636C49.2254 17.9224 52.2241 18.1129 55.7039 18.2829C56.3394 18.0486 56.9284 17.6887 57.4407 17.2216C58.4367 16.3145 58.9348 15.0619 58.9348 13.4639V13.2122C58.9348 11.7925 58.4747 10.67 57.5567 9.85582ZM43.6543 4.39045H50.4071C51.0782 4.39045 51.5488 4.51971 51.8189 4.7737C51.9594 4.91143 52.0697 5.08089 52.1419 5.26988C52.2142 5.45888 52.2465 5.66273 52.2367 5.86678V5.91667C52.2367 6.90089 51.6311 7.39754 50.4156 7.39754H43.6627L43.6543 4.39045ZM52.9141 12.8879C52.9272 13.0963 52.8986 13.3054 52.8301 13.501C52.7617 13.6966 52.6551 13.8742 52.5174 14.0218C52.1777 14.3914 51.6248 14.5706 50.8609 14.5706H43.6543V11.2573H50.8609C51.6374 11.2573 52.1924 11.407 52.5174 11.7109C52.656 11.8467 52.7638 12.0148 52.8326 12.2023C52.9014 12.3898 52.9293 12.5917 52.9141 12.7926V12.8879Z" fill="white"/>
<path d="M77.0808 0.249485H69.7308L61.9945 18.5528L67.5002 18.7093L68.7495 15.6705H77.9186L79.2101 18.7547L85.0809 18.5959L77.0808 0.249485ZM70.4525 11.5658L73.2992 4.59911L76.2135 11.5658H70.4525Z" fill="white"/>
<path d="M107.553 10.4659C107.302 9.80955 106.886 9.2411 106.352 8.82397C105.062 7.82463 102.917 7.27432 99.916 7.17302L97.4659 7.09818C96.2504 7.07777 95.3894 6.90089 94.8766 6.56752C94.6828 6.47678 94.5189 6.32558 94.406 6.13351C94.2931 5.94144 94.2365 5.71736 94.2435 5.49032C94.2358 5.26646 94.287 5.0448 94.3913 4.8508C94.5239 4.64925 94.7068 4.49203 94.9188 4.39725C95.4816 4.1115 96.4453 3.96939 97.8099 3.9709H98.0209C99.4025 3.9709 100.387 4.18785 100.975 4.62176C101.179 4.7687 101.347 4.96629 101.465 5.19778C101.564 5.41327 101.635 5.64213 101.676 5.87811H107.606V5.66948C107.606 4.03364 107.076 2.76444 106.017 1.86186C104.561 0.620619 102.021 0 98.3966 0H97.5124C94.1022 0 91.6676 0.543514 90.2087 1.63054C89.027 2.53766 88.4361 3.85751 88.4361 5.5901V5.81688C88.4361 7.42248 88.9805 8.68488 90.0694 9.60409C91.3272 10.6896 93.3875 11.2823 96.2504 11.382L98.6308 11.4569C99.9518 11.4773 100.88 11.6519 101.406 11.983C101.609 12.1045 101.778 12.2822 101.895 12.4978C101.994 12.7085 102.044 12.9421 102.039 13.1781C102.043 13.4353 101.998 13.6906 101.908 13.9288C101.805 14.1779 101.629 14.3836 101.406 14.5139C100.788 14.9357 99.7176 15.1443 98.2109 15.1443H98.0716C96.5944 15.1443 95.5393 14.8344 94.9062 14.2145C94.7065 14.0266 94.5454 13.7961 94.4331 13.5376C94.3208 13.2792 94.2599 12.9984 94.2541 12.7132H88.225V12.94C88.1994 13.8705 88.3917 14.793 88.7843 15.6228C89.3287 16.6932 90.2319 17.5255 91.4896 18.131L91.6247 18.1899C97.3077 17.7364 102.387 16.9381 106.086 15.6954C106.599 15.5253 107.097 15.3756 107.587 15.2418C107.816 14.5217 107.927 13.7644 107.916 13.0035V12.7132C107.931 11.946 107.808 11.1829 107.553 10.4659Z" fill="white"/>
</g>
<defs>
<clipPath id="clip0_1797_6984">
<rect width="126.93" height="44.9994" fill="white" transform="translate(0.534912)"/>
</clipPath>
</defs>
</svg>
